BodoniModa-96ptItalic.ufo
<glyph name="parenright" format="2">
  <advance width="723"/>
  <unicode hex="0029"/>
  <outline>
    <contour>
      <point x="-103" y="-340" type="line"/>
      <point x="283" y="-180"/>
      <point x="699" y="304"/>
      <point x="699" y="890" type="curve" smooth="yes"/>
      <point x="699" y="1236"/>
      <point x="543" y="1500"/>
      <point x="317" y="1600" type="curve"/>
      <point x="315" y="1596" type="line"/>
      <point x="463" y="1456"/>
      <point x="515" y="1294"/>
      <point x="515" y="930" type="curve" smooth="yes"/>
      <point x="515" y="446"/>
      <point x="203" y="-176"/>
      <point x="-105" y="-336" type="curve"/>
    </contour>
  </outline>
</glyph>
<glyph name="plus" format="2">
  <advance width="1059"/>
  <unicode hex="002B"/>
  <outline>
    <contour>
      <point x="120" y="770" type="line"/>
      <point x="939" y="770" type="line"/>
      <point x="939" y="774" type="line"/>
      <point x="120" y="774" type="line"/>
    </contour>
    <contour>
      <point x="527" y="361" type="line"/>
      <point x="531" y="361" type="line"/>
      <point x="531" y="1180" type="line"/>
      <point x="527" y="1180" type="line"/>
    </contour>
  </outline>
</glyph>
<glyph name="H" format="2">
  <advance width="1439"/>
  <unicode hex="0048"/>
  <anchor x="606" y="0" name="bottom"/>
  <anchor x="178" y="0" name="cedilla"/>
  <anchor x="939" y="1500" name="top"/>
  <outline>
    <contour>
      <point x="414" y="738" type="line"/>
      <point x="1134" y="738" type="line"/>
      <point x="1134" y="742" type="line"/>
      <point x="414" y="742" type="line"/>
    </contour>
    <contour>
      <point x="790" y="1496" type="line"/>
      <point x="790" y="1500" type="line"/>
      <point x="250" y="1500" type="line"/>
      <point x="250" y="1496" type="line"/>
      <point x="429" y="1496" type="line"/>
      <point x="91" y="4" type="line"/>
      <point x="-80" y="4" type="line"/>
      <point x="-80" y="0" type="line"/>
      <point x="460" y="0" type="line"/>
      <point x="460" y="4" type="line"/>
      <point x="281" y="4" type="line"/>
      <point x="619" y="1496" type="line"/>
    </contour>
    <contour>
      <point x="1630" y="1500" type="line"/>
      <point x="1090" y="1500" type="line"/>
      <point x="1090" y="1496" type="line"/>
      <point x="1269" y="1496" type="line"/>
      <point x="931" y="4" type="line"/>
      <point x="760" y="4" type="line"/>
      <point x="760" y="0" type="line"/>
      <point x="1300" y="0" type="line"/>
      <point x="1300" y="4" type="line"/>
      <point x="1121" y="4" type="line"/>
      <point x="1459" y="1496" type="line"/>
      <point x="1630" y="1496" type="line"/>
    </contour>
  </outline>
</glyph>
<glyph name="P" format="2">
  <advance width="1209"/>
  <unicode hex="0050"/>
  <anchor x="172" y="0" name="bottom"/>
  <anchor x="746" y="1500" name="top"/>
  <outline>
    <contour>
      <point x="347" y="678" type="line"/>
      <point x="620" y="678" type="line" smooth="yes"/>
      <point x="1022" y="678"/>
      <point x="1270" y="860"/>
      <point x="1270" y="1160" type="curve" smooth="yes"/>
      <point x="1270" y="1400"/>
      <point x="1082" y="1500"/>
      <point x="820" y="1500" type="curve" smooth="yes"/>
      <point x="250" y="1500" type="line"/>
      <point x="250" y="1496" type="line"/>
      <point x="429" y="1496" type="line"/>
      <point x="81" y="4" type="line"/>
      <point x="-80" y="4" type="line"/>
      <point x="-80" y="0" type="line"/>
      <point x="470" y="0" type="line"/>
      <point x="470" y="4" type="line"/>
      <point x="271" y="4" type="line"/>
      <point x="619" y="1496" type="line"/>
      <point x="820" y="1496" type="line" smooth="yes"/>
      <point x="1012" y="1496"/>
      <point x="1050" y="1298"/>
      <point x="1050" y="1180" type="curve" smooth="yes"/>
      <point x="1050" y="962"/>
      <point x="892" y="682"/>
      <point x="620" y="682" type="curve" smooth="yes"/>
      <point x="348" y="682" type="line"/>
    </contour>
  </outline>
</glyph>
<glyph name="Q" format="2">
  <advance width="1429"/>
  <unicode hex="0051"/>
  <anchor x="936" y="1500" name="top"/>
  <outline>
    <contour>
      <point x="600" y="-20" type="curve" smooth="yes"/>
      <point x="1046" y="-20"/>
      <point x="1430" y="444"/>
      <point x="1430" y="990" type="curve" smooth="yes"/>
      <point x="1430" y="1316"/>
      <point x="1226" y="1520"/>
      <point x="940" y="1520" type="curve" smooth="yes"/>
      <point x="514" y="1520"/>
      <point x="110" y="1056"/>
      <point x="110" y="510" type="curve" smooth="yes"/>
      <point x="110" y="184"/>
      <point x="294" y="-20"/>
    </contour>
    <contour>
      <point x="850" y="-500" type="curve"/>
      <point x="850" y="-496" type="line"/>
      <point x="682" y="-496"/>
      <point x="620" y="-364"/>
      <point x="720" y="0" type="curve"/>
      <point x="648" y="-24"/>
      <point x="560" y="-24"/>
      <point x="490" y="0" type="curve"/>
      <point x="390" y="-346"/>
      <point x="464" y="-500"/>
    </contour>
    <contour>
      <point x="600" y="-16" type="curve" smooth="yes"/>
      <point x="392" y="-16"/>
      <point x="330" y="186"/>
      <point x="330" y="390" type="curve" smooth="yes"/>
      <point x="330" y="854"/>
      <point x="572" y="1516"/>
      <point x="940" y="1516" type="curve" smooth="yes"/>
      <point x="1148" y="1516"/>
      <point x="1210" y="1274"/>
      <point x="1210" y="1110" type="curve" smooth="yes"/>
      <point x="1210" y="646"/>
      <point x="988" y="-16"/>
    </contour>
  </outline>
</glyph>
<glyph name="V" format="2">
  <advance width="1439"/>
  <unicode hex="0056"/>
  <anchor x="622" y="0" name="bottom"/>
  <anchor x="966" y="1500" name="top"/>
  <outline>
    <contour>
      <point x="570" y="-30" type="line"/>
      <point x="574" y="-30" type="line"/>
      <point x="1452" y="1500" type="line"/>
      <point x="1448" y="1500" type="line"/>
      <point x="718" y="230" type="line"/>
      <point x="590" y="1500" type="line"/>
      <point x="380" y="1500" type="line"/>
    </contour>
    <contour>
      <point x="240" y="1496" type="line"/>
      <point x="820" y="1496" type="line"/>
      <point x="820" y="1500" type="line"/>
      <point x="240" y="1500" type="line"/>
    </contour>
    <contour>
      <point x="1200" y="1496" type="line"/>
      <point x="1640" y="1496" type="line"/>
      <point x="1640" y="1500" type="line"/>
      <point x="1200" y="1500" type="line"/>
    </contour>
  </outline>
</glyph>
<glyph name="Z" format="2">
  <advance width="1097"/>
  <unicode hex="005A"/>
  <anchor x="456" y="0" name="bottom"/>
  <anchor x="676" y="1500" name="top"/>
  <outline>
    <contour>
      <point x="-100" y="0" type="line"/>
      <point x="910" y="0" type="line"/>
      <point x="998" y="380" type="line"/>
      <point x="994" y="380" type="line"/>
      <point x="936" y="128"/>
      <point x="834" y="4"/>
      <point x="560" y="4" type="curve" smooth="yes"/>
      <point x="140" y="4" type="line"/>
      <point x="1228" y="1496" type="line"/>
      <point x="1228" y="1500" type="line"/>
      <point x="278" y="1500" type="line"/>
      <point x="198" y="1160" type="line"/>
      <point x="202" y="1160" type="line"/>
      <point x="252" y="1374"/>
      <point x="354" y="1496"/>
      <point x="628" y="1496" type="curve" smooth="yes"/>
      <point x="988" y="1496" type="line"/>
      <point x="-100" y="4" type="line"/>
    </contour>
  </outline>
</glyph>
<glyph name="asciicircum" format="2">
  <advance width="1089"/>
  <unicode hex="005E"/>
  <outline>
    <contour>
      <point x="422" y="1258" type="line"/>
      <point x="816" y="1446" type="line"/>
      <point x="1108" y="1258" type="line"/>
      <point x="1110" y="1260" type="line"/>
      <point x="890" y="1540" type="line"/>
      <point x="760" y="1540" type="line"/>
      <point x="420" y="1260" type="line"/>
    </contour>
  </outline>
</glyph>
<glyph name="i" format="2">
  <advance width="567"/>
  <unicode hex="0069"/>
  <anchor x="279" y="0" name="bottom"/>
  <anchor x="279" y="0" name="cedilla"/>
  <outline>
    <contour>
      <point x="222" y="-20" type="curve" smooth="yes"/>
      <point x="365" y="-20"/>
      <point x="440" y="76"/>
      <point x="527" y="306" type="curve"/>
      <point x="524" y="307" type="line"/>
      <point x="437" y="79"/>
      <point x="361" y="-12"/>
      <point x="241" y="-12" type="curve" smooth="yes"/>
      <point x="211" y="-12"/>
      <point x="202" y="7"/>
      <point x="202" y="30" type="curve" smooth="yes"/>
      <point x="202" y="39"/>
      <point x="202.825" y="50.767"/>
      <point x="206" y="62" type="curve" smooth="yes"/>
      <point x="448" y="920" type="line"/>
      <point x="135" y="920" type="line"/>
      <point x="135" y="916" type="line"/>
      <point x="291" y="916" type="line"/>
      <point x="77" y="170" type="line" smooth="yes"/>
      <point x="71" y="148"/>
      <point x="68" y="126"/>
      <point x="68" y="106" type="curve" smooth="yes"/>
      <point x="68" y="30"/>
      <point x="118" y="-20"/>
    </contour>
    <contour>
      <point x="467" y="1269" type="curve" smooth="yes"/>
      <point x="533" y="1269"/>
      <point x="588" y="1324"/>
      <point x="588" y="1390" type="curve" smooth="yes"/>
      <point x="588" y="1456"/>
      <point x="533" y="1510"/>
      <point x="467" y="1510" type="curve" smooth="yes"/>
      <point x="401" y="1510"/>
      <point x="348" y="1456"/>
      <point x="348" y="1390" type="curve" smooth="yes"/>
      <point x="348" y="1324"/>
      <point x="400" y="1269"/>
    </contour>
  </outline>
</glyph>
<glyph name="l" format="2">
  <advance width="575"/>
  <unicode hex="006C"/>
  <anchor x="191" y="0" name="bottom"/>
  <anchor x="193" y="0" name="cedilla"/>
  <anchor x="405" y="1500" name="top"/>
  <anchor x="543" y="920" name="topright"/>
  <outline>
    <contour>
      <point x="211" y="-20" type="curve" smooth="yes"/>
      <point x="344" y="-20"/>
      <point x="424" y="76"/>
      <point x="510" y="306" type="curve"/>
      <point x="507" y="307" type="line"/>
      <point x="422" y="80"/>
      <point x="341" y="-12"/>
      <point x="226" y="-12" type="curve" smooth="yes"/>
      <point x="196" y="-12"/>
      <point x="185" y="5"/>
      <point x="185" y="28" type="curve" smooth="yes"/>
      <point x="185" y="36"/>
      <point x="186.108" y="49.24"/>
      <point x="189" y="60" type="curve" smooth="yes"/>
      <point x="576" y="1500" type="line"/>
      <point x="219" y="1500" type="line"/>
      <point x="219" y="1496" type="line"/>
      <point x="417" y="1496" type="line"/>
      <point x="59" y="170" type="line" smooth="yes"/>
      <point x="54" y="152"/>
      <point x="50" y="133"/>
      <point x="50" y="106" type="curve" smooth="yes"/>
      <point x="50" y="31"/>
      <point x="107" y="-20"/>
    </contour>
  </outline>
</glyph>
<glyph name="s" format="2">
  <advance width="814"/>
  <unicode hex="0073"/>
  <anchor x="338" y="0" name="bottom"/>
  <anchor x="477" y="920" name="top"/>
  <outline>
    <contour>
      <point x="361" y="-20" type="curve" smooth="yes"/>
      <point x="534" y="-20"/>
      <point x="714" y="86"/>
      <point x="714" y="264" type="curve" smooth="yes"/>
      <point x="714" y="550"/>
      <point x="249" y="577"/>
      <point x="249" y="777" type="curve" smooth="yes"/>
      <point x="249" y="894"/>
      <point x="386" y="934"/>
      <point x="488" y="934" type="curve" smooth="yes"/>
      <point x="663" y="934"/>
      <point x="760" y="842"/>
      <point x="760" y="760" type="curve"/>
      <point x="762" y="760" type="line"/>
      <point x="762" y="810"/>
      <point x="730" y="847"/>
      <point x="674" y="847" type="curve" smooth="yes"/>
      <point x="618.982" y="847"/>
      <point x="580" y="805"/>
      <point x="580" y="753" type="curve" smooth="yes"/>
      <point x="580" y="688"/>
      <point x="625" y="657"/>
      <point x="674" y="657" type="curve" smooth="yes"/>
      <point x="721" y="657"/>
      <point x="764" y="688"/>
      <point x="764" y="760" type="curve" smooth="yes"/>
      <point x="764" y="844"/>
      <point x="664" y="938"/>
      <point x="488" y="938" type="curve" smooth="yes"/>
      <point x="292" y="938"/>
      <point x="152" y="832"/>
      <point x="152" y="684" type="curve" smooth="yes"/>
      <point x="152" y="432"/>
      <point x="626" y="389"/>
      <point x="626" y="166" type="curve" smooth="yes"/>
      <point x="626" y="34"/>
      <point x="471" y="-16"/>
      <point x="360" y="-16" type="curve" smooth="yes"/>
      <point x="195" y="-16"/>
      <point x="34" y="62"/>
      <point x="34" y="210" type="curve"/>
      <point x="32" y="210" type="line"/>
      <point x="32" y="150"/>
      <point x="74.384" y="124"/>
      <point x="127" y="124" type="curve" smooth="yes"/>
      <point x="177" y="124"/>
      <point x="223" y="157"/>
      <point x="223" y="218" type="curve" smooth="yes"/>
      <point x="223" y="277"/>
      <point x="185" y="319"/>
      <point x="130" y="319" type="curve" smooth="yes"/>
      <point x="67" y="319"/>
      <point x="30" y="269"/>
      <point x="30" y="210" type="curve" smooth="yes"/>
      <point x="30" y="61"/>
      <point x="193" y="-20"/>
    </contour>
  </outline>
</glyph>
<glyph name="u" format="2">
  <advance width="1131"/>
  <unicode hex="0075"/>
  <anchor x="376" y="0" name="bottom"/>
  <anchor x="812" y="0" name="ogonek"/>
  <anchor x="496" y="920" name="top"/>
  <outline>
    <contour>
      <point x="248" y="-20" type="curve" smooth="yes"/>
      <point x="459" y="-20"/>
      <point x="674" y="406"/>
      <point x="732" y="654" type="curve"/>
      <point x="728" y="654" type="line"/>
      <point x="652" y="347"/>
      <point x="431" y="2"/>
      <point x="294" y="2" type="curve" smooth="yes"/>
      <point x="174" y="2"/>
      <point x="209" y="147"/>
      <point x="246" y="305" type="curve" smooth="yes"/>
      <point x="390" y="920" type="line"/>
      <point x="79" y="920" type="line"/>
      <point x="79" y="916" type="line"/>
      <point x="219" y="916" type="line"/>
      <point x="76" y="282" type="line" smooth="yes"/>
      <point x="39" y="118"/>
      <point x="55" y="-20"/>
    </contour>
    <contour>
      <point x="760" y="-20" type="curve" smooth="yes"/>
      <point x="884" y="-20"/>
      <point x="967" y="76"/>
      <point x="1053" y="306" type="curve"/>
      <point x="1050" y="307" type="line"/>
      <point x="965" y="80"/>
      <point x="884" y="-12"/>
      <point x="766" y="-12" type="curve" smooth="yes"/>
      <point x="741" y="-12"/>
      <point x="729" y="5"/>
      <point x="729" y="26" type="curve" smooth="yes"/>
      <point x="729" y="36"/>
      <point x="730" y="50"/>
      <point x="733" y="62" type="curve" smooth="yes"/>
      <point x="961" y="920" type="line"/>
      <point x="792" y="920" type="line"/>
      <point x="611" y="170" type="line" smooth="yes"/>
      <point x="606" y="149"/>
      <point x="602" y="121"/>
      <point x="602" y="105" type="curve" smooth="yes"/>
      <point x="602" y="45"/>
      <point x="656" y="-20"/>
    </contour>
  </outline>
</glyph>
<glyph name="v" format="2">
  <advance width="1003"/>
  <unicode hex="0076"/>
  <anchor x="407" y="0" name="bottom"/>
  <anchor x="637" y="920" name="top"/>
  <outline>
    <contour>
      <point x="406" y="-20" type="curve" smooth="yes"/>
      <point x="652" y="-20"/>
      <point x="913" y="453"/>
      <point x="913" y="758" type="curve" smooth="yes"/>
      <point x="913" y="880"/>
      <point x="853" y="938"/>
      <point x="777" y="938" type="curve" smooth="yes"/>
      <point x="713" y="938"/>
      <point x="665" y="885"/>
      <point x="665" y="824" type="curve" smooth="yes"/>
      <point x="665" y="754"/>
      <point x="707" y="710"/>
      <point x="777" y="710" type="curve" smooth="yes"/>
      <point x="839.825" y="710"/>
      <point x="895" y="759.859"/>
      <point x="895" y="824" type="curve" smooth="yes"/>
      <point x="895" y="894.062"/>
      <point x="841.203" y="935.874"/>
      <point x="777" y="936" type="curve"/>
      <point x="777" y="934" type="line"/>
      <point x="853" y="934"/>
      <point x="909" y="878"/>
      <point x="909" y="758" type="curve" smooth="yes"/>
      <point x="909" y="453"/>
      <point x="646" y="-10"/>
      <point x="421" y="-10" type="curve" smooth="yes"/>
      <point x="310" y="-10"/>
      <point x="321.146" y="79.434"/>
      <point x="358" y="237" type="curve" smooth="yes"/>
      <point x="474" y="736" type="line" smooth="yes"/>
      <point x="476" y="750"/>
      <point x="483" y="776"/>
      <point x="483" y="805" type="curve" smooth="yes"/>
      <point x="483" y="881"/>
      <point x="422" y="939"/>
      <point x="328" y="939" type="curve" smooth="yes"/>
      <point x="186" y="939"/>
      <point x="106" y="824"/>
      <point x="30" y="624" type="curve"/>
      <point x="33" y="623" type="line"/>
      <point x="109" y="822"/>
      <point x="190" y="929"/>
      <point x="304" y="929" type="curve" smooth="yes"/>
      <point x="329" y="929"/>
      <point x="343" y="916"/>
      <point x="343" y="895" type="curve" smooth="yes"/>
      <point x="343" y="885"/>
      <point x="340" y="871"/>
      <point x="338" y="859" type="curve" smooth="yes"/>
      <point x="195" y="262" type="line" smooth="yes"/>
      <point x="153.429" y="88.616"/>
      <point x="213" y="-20"/>
    </contour>
  </outline>
</glyph>
<glyph name="x" format="2">
  <advance width="1013"/>
  <unicode hex="0078"/>
  <anchor x="376" y="0" name="bottom"/>
  <anchor x="606" y="920" name="top"/>
  <outline>
    <contour>
      <point x="682" y="-20" type="curve" smooth="yes"/>
      <point x="786" y="-20"/>
      <point x="876" y="38"/>
      <point x="942" y="218" type="curve"/>
      <point x="938" y="219" type="line"/>
      <point x="890" y="78"/>
      <point x="808" y="10"/>
      <point x="762" y="10" type="curve" smooth="yes"/>
      <point x="727" y="10"/>
      <point x="710" y="37"/>
      <point x="702" y="58" type="curve" smooth="yes"/>
      <point x="632" y="251"/>
      <point x="528.871" y="594.669"/>
      <point x="475" y="773" type="curve" smooth="yes"/>
      <point x="446" y="869"/>
      <point x="405" y="939"/>
      <point x="312" y="939" type="curve" smooth="yes"/>
      <point x="188" y="939"/>
      <point x="112" y="873"/>
      <point x="46" y="693" type="curve"/>
      <point x="50" y="692" type="line"/>
      <point x="108" y="853"/>
      <point x="180" y="915"/>
      <point x="237" y="915" type="curve" smooth="yes"/>
      <point x="274" y="915"/>
      <point x="280" y="879"/>
      <point x="288" y="858" type="curve" smooth="yes"/>
      <point x="342.838" y="714.05"/>
      <point x="458.514" y="316.438"/>
      <point x="510" y="146" type="curve" smooth="yes"/>
      <point x="539" y="50"/>
      <point x="589" y="-20"/>
    </contour>
    <contour>
      <point x="72" y="-20" type="curve" smooth="yes"/>
      <point x="238" y="-20"/>
      <point x="344" y="245"/>
      <point x="464" y="440" type="curve"/>
      <point x="460" y="440" type="line"/>
      <point x="349" y="251"/>
      <point x="306" y="169"/>
      <point x="255" y="102" type="curve" smooth="yes"/>
      <point x="227.377" y="65.71"/>
      <point x="160" y="-16"/>
      <point x="72" y="-16" type="curve" smooth="yes"/>
      <point x="-23" y="-16"/>
      <point x="-77" y="58"/>
      <point x="-77" y="132" type="curve"/>
      <point x="-79" y="132" type="line"/>
      <point x="-79" y="77"/>
      <point x="-4" y="32"/>
      <point x="36" y="32" type="curve" smooth="yes"/>
      <point x="114" y="32"/>
      <point x="146" y="87"/>
      <point x="146" y="138" type="curve" smooth="yes"/>
      <point x="146" y="188"/>
      <point x="116" y="252"/>
      <point x="36" y="252" type="curve" smooth="yes"/>
      <point x="-40" y="252"/>
      <point x="-81" y="204"/>
      <point x="-81" y="132" type="curve" smooth="yes"/>
      <point x="-81" y="68"/>
      <point x="-36" y="-20"/>
    </contour>
    <contour>
      <point x="503" y="480" type="line"/>
      <point x="614" y="669"/>
      <point x="657" y="751"/>
      <point x="708" y="818" type="curve" smooth="yes"/>
      <point x="735.623" y="854.29"/>
      <point x="803" y="936"/>
      <point x="891" y="936" type="curve" smooth="yes"/>
      <point x="986" y="936"/>
      <point x="1040" y="862"/>
      <point x="1040" y="788" type="curve"/>
      <point x="1042" y="788" type="line"/>
      <point x="1042" y="843"/>
      <point x="967" y="888"/>
      <point x="927" y="888" type="curve" smooth="yes"/>
      <point x="849" y="888"/>
      <point x="817" y="833"/>
      <point x="817" y="782" type="curve" smooth="yes"/>
      <point x="817" y="732"/>
      <point x="847" y="668"/>
      <point x="927" y="668" type="curve" smooth="yes"/>
      <point x="1003" y="668"/>
      <point x="1044" y="716"/>
      <point x="1044" y="788" type="curve" smooth="yes"/>
      <point x="1044" y="852"/>
      <point x="999" y="940"/>
      <point x="891" y="940" type="curve" smooth="yes"/>
      <point x="725" y="940"/>
      <point x="619" y="675"/>
      <point x="499" y="480" type="curve"/>
    </contour>
  </outline>
</glyph>
<glyph name="sterling" format="2">
  <advance width="1250"/>
  <unicode hex="00A3"/>
  <outline>
    <contour>
      <point x="64" y="-40" type="curve"/>
      <point x="68" y="-40" type="line"/>
      <point x="42" y="270"/>
      <point x="660" y="320"/>
      <point x="660" y="700" type="curve" smooth="yes"/>
      <point x="660" y="870"/>
      <point x="618" y="962"/>
      <point x="618" y="1100" type="curve" smooth="yes"/>
      <point x="618" y="1248"/>
      <point x="750" y="1512"/>
      <point x="1028" y="1512" type="curve" smooth="yes"/>
      <point x="1276" y="1512"/>
      <point x="1400" y="1346"/>
      <point x="1400" y="1200" type="curve"/>
      <point x="1392" y="1242"/>
      <point x="1348" y="1290"/>
      <point x="1286" y="1290" type="curve" smooth="yes"/>
      <point x="1228" y="1290"/>
      <point x="1172" y="1250"/>
      <point x="1172" y="1180" type="curve" smooth="yes"/>
      <point x="1172" y="1100"/>
      <point x="1236" y="1068"/>
      <point x="1286" y="1068" type="curve" smooth="yes"/>
      <point x="1346" y="1068"/>
      <point x="1404" y="1110"/>
      <point x="1404" y="1192" type="curve" smooth="yes"/>
      <point x="1404" y="1356"/>
      <point x="1272" y="1520"/>
      <point x="1008" y="1520" type="curve" smooth="yes"/>
      <point x="646" y="1520"/>
      <point x="396" y="1320"/>
      <point x="396" y="1020" type="curve" smooth="yes"/>
      <point x="396" y="850"/>
      <point x="458" y="730"/>
      <point x="458" y="622" type="curve" smooth="yes"/>
      <point x="458" y="394"/>
      <point x="26" y="238"/>
    </contour>
    <contour>
      <point x="784" y="-60" type="curve" smooth="yes"/>
      <point x="962" y="-60"/>
      <point x="1144" y="24"/>
      <point x="1184" y="314" type="curve"/>
      <point x="1180" y="314" type="line"/>
      <point x="1140" y="150"/>
      <point x="1002" y="126"/>
      <point x="836" y="126" type="curve" smooth="yes"/>
      <point x="644" y="126"/>
      <point x="624" y="194"/>
      <point x="424" y="194" type="curve" smooth="yes"/>
      <point x="238" y="194"/>
      <point x="126" y="108"/>
      <point x="66" y="-40" type="curve"/>
      <point x="70" y="-40" type="line"/>
      <point x="110" y="20"/>
      <point x="212" y="60"/>
      <point x="294" y="60" type="curve" smooth="yes"/>
      <point x="420" y="60"/>
      <point x="510" y="-60"/>
    </contour>
    <contour>
      <point x="130" y="806" type="line"/>
      <point x="1030" y="806" type="line"/>
      <point x="1030" y="810" type="line"/>
      <point x="130" y="810" type="line"/>
    </contour>
  </outline>
</glyph>
<glyph name="yen" format="2">
  <advance width="1449"/>
  <unicode hex="00A5"/>
  <anchor x="606" y="0" name="bottom"/>
  <anchor x="966" y="1500" name="top"/>
  <outline>
    <contour>
      <point x="510" y="0" type="line"/>
      <point x="700" y="0" type="line"/>
      <point x="868" y="742" type="line"/>
      <point x="1472" y="1496" type="line"/>
      <point x="1468" y="1496" type="line"/>
      <point x="866" y="748" type="line"/>
      <point x="600" y="1500" type="line"/>
      <point x="380" y="1500" type="line"/>
      <point x="680" y="754" type="line"/>
    </contour>
    <contour>
      <point x="330" y="0" type="line"/>
      <point x="900" y="0" type="line"/>
      <point x="900" y="4" type="line"/>
      <point x="330" y="4" type="line"/>
    </contour>
    <contour>
      <point x="265" y="339" type="line"/>
      <point x="1145" y="339" type="line"/>
      <point x="1145" y="343" type="line"/>
      <point x="265" y="343" type="line"/>
    </contour>
    <contour>
      <point x="265" y="640" type="line"/>
      <point x="1145" y="640" type="line"/>
      <point x="1145" y="644" type="line"/>
      <point x="265" y="644" type="line"/>
    </contour>
    <contour>
      <point x="240" y="1496" type="line"/>
      <point x="820" y="1496" type="line"/>
      <point x="820" y="1500" type="line"/>
      <point x="240" y="1500" type="line"/>
    </contour>
    <contour>
      <point x="1230" y="1496" type="line"/>
      <point x="1650" y="1496" type="line"/>
      <point x="1650" y="1500" type="line"/>
      <point x="1230" y="1500" type="line"/>
    </contour>
  </outline>
</glyph>
<glyph name="copyright" format="2">
  <advance width="1739"/>
  <unicode hex="00A9"/>
  <anchor x="845.6" y="300" name="_top"/>
  <anchor x="845.6" y="300" name="ogonek"/>
  <anchor x="1043.6" y="1200" name="top"/>
  <outline>
    <contour>
      <point x="840" y="-20" type="curve" smooth="yes"/>
      <point x="1306" y="-20"/>
      <point x="1750" y="424"/>
      <point x="1750" y="890" type="curve" smooth="yes"/>
      <point x="1750" y="1276"/>
      <point x="1466" y="1520"/>
      <point x="1080" y="1520" type="curve" smooth="yes"/>
      <point x="614" y="1520"/>
      <point x="170" y="1076"/>
      <point x="170" y="610" type="curve" smooth="yes"/>
      <point x="170" y="224"/>
      <point x="454" y="-20"/>
    </contour>
    <contour>
      <point x="1127.6" y="300" type="line"/>
      <point x="1130" y="300" type="line"/>
      <point x="1196" y="546" type="line"/>
      <point x="1193.6" y="546" type="line"/>
      <point x="1180.4" y="508.8" type="line"/>
      <point x="1149.2" y="442.8"/>
      <point x="1119.2" y="415.2"/>
      <point x="1088" y="384" type="curve"/>
    </contour>
    <contour>
      <point x="836" y="288" type="curve" smooth="yes"/>
      <point x="1007.6" y="288"/>
      <point x="1148" y="398.4"/>
      <point x="1196" y="546" type="curve"/>
      <point x="1193.6" y="546" type="line"/>
      <point x="1145.6" y="403.2"/>
      <point x="1008.8" y="292.8"/>
      <point x="848" y="292.8" type="curve" smooth="yes"/>
      <point x="723.2" y="292.8"/>
      <point x="662" y="411.6"/>
      <point x="662" y="534" type="curve" smooth="yes"/>
      <point x="662" y="812.4"/>
      <point x="807.2" y="1207.2"/>
      <point x="1064" y="1207.2" type="curve" smooth="yes"/>
      <point x="1198.4" y="1207.2"/>
      <point x="1299.2" y="1118.4"/>
      <point x="1277.6" y="954" type="curve"/>
      <point x="1280" y="954" type="line"/>
      <point x="1301.6" y="1125.6"/>
      <point x="1193.6" y="1212"/>
      <point x="1052" y="1212" type="curve" smooth="yes"/>
      <point x="772.4" y="1212"/>
      <point x="530" y="933.6"/>
      <point x="530" y="606" type="curve" smooth="yes"/>
      <point x="530" y="410.4"/>
      <point x="652.4" y="288"/>
    </contour>
    <contour>
      <point x="840" y="-16" type="curve" smooth="yes"/>
      <point x="456" y="-16"/>
      <point x="174" y="226"/>
      <point x="174" y="610" type="curve" smooth="yes"/>
      <point x="174" y="1074"/>
      <point x="618" y="1516"/>
      <point x="1080" y="1516" type="curve" smooth="yes"/>
      <point x="1464" y="1516"/>
      <point x="1746" y="1274"/>
      <point x="1746" y="890" type="curve" smooth="yes"/>
      <point x="1746" y="426"/>
      <point x="1302" y="-16"/>
    </contour>
    <contour>
      <point x="1277.6" y="954" type="line"/>
      <point x="1280" y="954" type="line"/>
      <point x="1337.6" y="1200" type="line"/>
      <point x="1335.2" y="1200" type="line"/>
      <point x="1250" y="1116" type="line"/>
      <point x="1275.2" y="1080"/>
      <point x="1283.6" y="1033.2"/>
      <point x="1281.2" y="978" type="curve"/>
    </contour>
  </outline>
</glyph>
<glyph name="ordfeminine" format="2">
  <advance width="705"/>
  <unicode hex="00AA"/>
  <anchor x="695.6" y="964" name="bottom"/>
  <anchor x="935.6" y="964" name="ogonek"/>
  <anchor x="833.6" y="1516" name="top"/>
  <outline>
    <contour>
      <point x="639.8" y="952" type="curve" smooth="yes"/>
      <point x="785" y="952"/>
      <point x="878" y="1193.2"/>
      <point x="878" y="1352.8" type="curve" smooth="yes"/>
      <point x="878" y="1440.4"/>
      <point x="866.6" y="1528"/>
      <point x="780.2" y="1528" type="curve" smooth="yes"/>
      <point x="638.6" y="1528"/>
      <point x="488" y="1330.6"/>
      <point x="488" y="1147" type="curve" smooth="yes"/>
      <point x="488" y="1024"/>
      <point x="532.4" y="952"/>
    </contour>
    <contour>
      <point x="660.8" y="962.8" type="curve" smooth="yes"/>
      <point x="611.6" y="962.8"/>
      <point x="579.2" y="1007.2"/>
      <point x="579.2" y="1105" type="curve" smooth="yes"/>
      <point x="579.2" y="1261"/>
      <point x="687.8" y="1522"/>
      <point x="791.6" y="1522" type="curve" smooth="yes"/>
      <point x="858.8" y="1522"/>
      <point x="875.6" y="1446.4"/>
      <point x="875.6" y="1352.8" type="curve" smooth="yes"/>
      <point x="875.6" y="1195"/>
      <point x="780.2" y="962.8"/>
    </contour>
    <contour>
      <point x="900.8" y="952" type="curve" smooth="yes"/>
      <point x="980.6" y="952"/>
      <point x="1028.6" y="1009.6"/>
      <point x="1080.2" y="1147.6" type="curve"/>
      <point x="1078.4" y="1148.2" type="line"/>
      <point x="1027.4" y="1012"/>
      <point x="978.8" y="956.8"/>
      <point x="909.8" y="956.8" type="curve" smooth="yes"/>
      <point x="891.8" y="956.8"/>
      <point x="885.2" y="967"/>
      <point x="885.2" y="980.8" type="curve" smooth="yes"/>
      <point x="885.2" y="986.2"/>
      <point x="885.8" y="993.4"/>
      <point x="887.6" y="1000" type="curve" smooth="yes"/>
      <point x="1025" y="1516" type="line"/>
      <point x="923.6" y="1516" type="line"/>
      <point x="878" y="1327" type="line"/>
      <point x="862.4" y="1231" type="line"/>
      <point x="835.4" y="1142.2" type="line"/>
      <point x="821.6" y="1066" type="line" smooth="yes"/>
      <point x="819.8" y="1057.6"/>
      <point x="819.2" y="1046.8"/>
      <point x="819.2" y="1033.6" type="curve" smooth="yes"/>
      <point x="819.2" y="985.6"/>
      <point x="844.4" y="952"/>
    </contour>
  </outline>
</glyph>
<glyph name="registered" format="2">
  <advance width="1739"/>
  <unicode hex="00AE"/>
  <anchor x="915.6" y="296" name="bottom"/>
  <anchor x="651.6" y="296" name="cedilla"/>
  <anchor x="999.6" y="1196" name="top"/>
  <outline>
    <contour>
      <point x="840" y="-20" type="curve" smooth="yes"/>
      <point x="1306" y="-20"/>
      <point x="1750" y="424"/>
      <point x="1750" y="890" type="curve" smooth="yes"/>
      <point x="1750" y="1276"/>
      <point x="1466" y="1520"/>
      <point x="1080" y="1520" type="curve" smooth="yes"/>
      <point x="614" y="1520"/>
      <point x="170" y="1076"/>
      <point x="170" y="610" type="curve" smooth="yes"/>
      <point x="170" y="224"/>
      <point x="454" y="-20"/>
    </contour>
    <contour>
      <point x="468" y="296" type="line"/>
      <point x="834" y="296" type="line"/>
      <point x="834" y="298.4" type="line"/>
      <point x="468" y="298.4" type="line"/>
    </contour>
    <contour>
      <point x="588" y="296" type="line"/>
      <point x="702" y="296" type="line"/>
      <point x="912" y="1196" type="line"/>
      <point x="798" y="1196" type="line"/>
    </contour>
    <contour>
      <point x="1188" y="290" type="curve" smooth="yes"/>
      <point x="1231.2" y="290"/>
      <point x="1252.8" y="293.6"/>
      <point x="1296" y="310.4" type="curve"/>
      <point x="1294.8" y="312.8" type="line"/>
      <point x="1276.8" y="305.6"/>
      <point x="1260" y="299.6"/>
      <point x="1234.8" y="299.6" type="curve" smooth="yes"/>
      <point x="1087.2" y="299.6"/>
      <point x="1347.6" y="759.2"/>
      <point x="936" y="759.2" type="curve" smooth="yes"/>
      <point x="774" y="759.2" type="line"/>
      <point x="774" y="756.8" type="line"/>
      <point x="912" y="756.8" type="line" smooth="yes"/>
      <point x="1207.2" y="756.8"/>
      <point x="908.4" y="290"/>
    </contour>
    <contour>
      <point x="840" y="-16" type="curve" smooth="yes"/>
      <point x="456" y="-16"/>
      <point x="174" y="226"/>
      <point x="174" y="610" type="curve" smooth="yes"/>
      <point x="174" y="1074"/>
      <point x="618" y="1516"/>
      <point x="1080" y="1516" type="curve" smooth="yes"/>
      <point x="1464" y="1516"/>
      <point x="1746" y="1274"/>
      <point x="1746" y="890" type="curve" smooth="yes"/>
      <point x="1746" y="426"/>
      <point x="1302" y="-16"/>
    </contour>
    <contour>
      <point x="774" y="756.8" type="line"/>
      <point x="948" y="756.8" type="line" smooth="yes"/>
      <point x="1189.2" y="756.8"/>
      <point x="1326" y="848"/>
      <point x="1326" y="1016" type="curve" smooth="yes"/>
      <point x="1326" y="1148"/>
      <point x="1225.2" y="1196"/>
      <point x="1068" y="1196" type="curve" smooth="yes"/>
      <point x="666" y="1196" type="line"/>
      <point x="666" y="1193.6" type="line"/>
      <point x="1068" y="1193.6" type="line" smooth="yes"/>
      <point x="1183.2" y="1193.6"/>
      <point x="1194" y="1086.8"/>
      <point x="1194" y="1028" type="curve" smooth="yes"/>
      <point x="1194" y="909.2"/>
      <point x="1111.2" y="759.2"/>
      <point x="948" y="759.2" type="curve" smooth="yes"/>
      <point x="774" y="759.2" type="line"/>
    </contour>
  </outline>
</glyph>
<glyph name="threesuperior" format="2">
  <advance width="899"/>
  <unicode hex="00B3"/>
  <outline>
    <contour>
      <point x="577.2" y="902" type="curve" smooth="yes"/>
      <point x="746.4" y="902"/>
      <point x="907.2" y="1028"/>
      <point x="907.2" y="1178" type="curve" smooth="yes"/>
      <point x="907.2" y="1310.6"/>
      <point x="850.8" y="1403"/>
      <point x="591.6" y="1403" type="curve"/>
      <point x="591.6" y="1401.2" type="line"/>
      <point x="764.4" y="1401.2"/>
      <point x="786" y="1266.8"/>
      <point x="786" y="1178" type="curve" smooth="yes"/>
      <point x="786" y="1047.2"/>
      <point x="714" y="906.8"/>
      <point x="553.2" y="906.8" type="curve" smooth="yes"/>
      <point x="447.6" y="906.8"/>
      <point x="338.4" y="966.2"/>
      <point x="338.4" y="1077.8" type="curve"/>
      <point x="337.2" y="1077.8" type="line"/>
      <point x="337.2" y="1047.8"/>
      <point x="369.6" y="1025"/>
      <point x="404.4" y="1025" type="curve" smooth="yes"/>
      <point x="439.8" y="1025"/>
      <point x="472.2" y="1049.6"/>
      <point x="472.2" y="1088" type="curve" smooth="yes"/>
      <point x="472.2" y="1131.2"/>
      <point x="444.6" y="1154.6"/>
      <point x="408" y="1154.6" type="curve" smooth="yes"/>
      <point x="366" y="1154.6"/>
      <point x="336" y="1127"/>
      <point x="336" y="1077.8" type="curve" smooth="yes"/>
      <point x="336" y="990.8"/>
      <point x="406.8" y="902"/>
    </contour>
    <contour>
      <point x="591.6" y="1401.8" type="line"/>
      <point x="868.8" y="1401.8"/>
      <point x="967.2" y="1533.2"/>
      <point x="967.2" y="1653.2" type="curve" smooth="yes"/>
      <point x="967.2" y="1785.8"/>
      <point x="873" y="1824.8"/>
      <point x="739.2" y="1824.8" type="curve" smooth="yes"/>
      <point x="610.8" y="1824.8"/>
      <point x="503.4" y="1733"/>
      <point x="503.4" y="1646" type="curve" smooth="yes"/>
      <point x="503.4" y="1596.8"/>
      <point x="536.4" y="1571.6"/>
      <point x="573" y="1571.6" type="curve" smooth="yes"/>
      <point x="603" y="1571.6"/>
      <point x="640.8" y="1590.2"/>
      <point x="640.8" y="1638.2" type="curve" smooth="yes"/>
      <point x="640.8" y="1680.2"/>
      <point x="608.4" y="1701.8"/>
      <point x="573" y="1701.8" type="curve" smooth="yes"/>
      <point x="542.4" y="1701.8"/>
      <point x="504.6" y="1682"/>
      <point x="504.6" y="1646" type="curve"/>
      <point x="505.8" y="1646" type="line"/>
      <point x="505.8" y="1736"/>
      <point x="617.4" y="1815.8"/>
      <point x="703.2" y="1815.8" type="curve" smooth="yes"/>
      <point x="810" y="1815.8"/>
      <point x="846" y="1760"/>
      <point x="846" y="1671.2" type="curve" smooth="yes"/>
      <point x="846" y="1576.4"/>
      <point x="782.4" y="1403.6"/>
      <point x="591.6" y="1403.6" type="curve"/>
    </contour>
  </outline>
</glyph>
<glyph name="ordmasculine" format="2">
  <advance width="963"/>
  <unicode hex="00BA"/>
  <anchor x="661" y="962" name="bottom"/>
  <anchor x="800.8" y="1514" name="top"/>
  <outline>
    <contour>
      <point x="662.2" y="950" type="curve" smooth="yes"/>
      <point x="831.4" y="950"/>
      <point x="983.8" y="1124"/>
      <point x="983.8" y="1334" type="curve" smooth="yes"/>
      <point x="983.8" y="1442"/>
      <point x="926.8" y="1526"/>
      <point x="805.6" y="1526" type="curve" smooth="yes"/>
      <point x="636.4" y="1526"/>
      <point x="484" y="1351.4"/>
      <point x="484" y="1141.4" type="curve" smooth="yes"/>
      <point x="484" y="1033.4"/>
      <point x="541" y="950"/>
    </contour>
    <contour>
      <point x="650.2" y="952.4" type="curve" smooth="yes"/>
      <point x="589" y="952.4"/>
      <point x="560.8" y="989.6"/>
      <point x="560.8" y="1048.4" type="curve" smooth="yes"/>
      <point x="560.8" y="1227.2"/>
      <point x="686.8" y="1523"/>
      <point x="817.6" y="1523" type="curve" smooth="yes"/>
      <point x="878.8" y="1523"/>
      <point x="907" y="1485.8"/>
      <point x="907" y="1427" type="curve" smooth="yes"/>
      <point x="907" y="1248.2"/>
      <point x="781" y="952.4"/>
    </contour>
  </outline>
</glyph>
<glyph name="guillemetright" format="2">
  <advance width="1389"/>
  <unicode hex="00BB"/>
  <outline>
    <contour>
      <point x="660" y="290" type="line"/>
      <point x="1440" y="750" type="line"/>
      <point x="1440" y="800" type="line"/>
      <point x="880" y="1260" type="line"/>
      <point x="878" y="1258" type="line"/>
      <point x="1188" y="774" type="line"/>
      <point x="658" y="292" type="line"/>
    </contour>
    <contour>
      <point x="100" y="290" type="line"/>
      <point x="880" y="750" type="line"/>
      <point x="880" y="800" type="line"/>
      <point x="320" y="1260" type="line"/>
      <point x="318" y="1258" type="line"/>
      <point x="628" y="774" type="line"/>
      <point x="98" y="292" type="line"/>
    </contour>
  </outline>
</glyph>
<glyph name="Dcroat" format="2">
  <advance width="1389"/>
  <unicode hex="0110"/>
  <outline>
    <contour>
      <point x="144.967" y="728" type="line"/>
      <point x="728.969" y="728" type="line"/>
      <point x="728.969" y="732" type="line"/>
      <point x="144.967" y="732" type="line"/>
    </contour>
    <component base="D"/>
  </outline>
</glyph>
<glyph name="Hbar" format="2">
  <advance width="1439"/>
  <unicode hex="0126"/>
  <outline>
    <contour>
      <point x="220.167" y="1108" type="line"/>
      <point x="1620.169" y="1108" type="line"/>
      <point x="1620.169" y="1112" type="line"/>
      <point x="220.167" y="1112" type="line"/>
    </contour>
    <component base="H"/>
  </outline>
</glyph>
<glyph name="tbar" format="2">
  <advance width="642"/>
  <unicode hex="0167"/>
  <outline>
    <contour>
      <point x="31.969" y="608" type="line"/>
      <point x="615.975" y="608" type="line"/>
      <point x="615.975" y="612" type="line"/>
      <point x="31.969" y="612" type="line"/>
    </contour>
    <component base="t"/>
  </outline>
</glyph>
<glyph name="jdotless" format="2">
  <advance width="637"/>
  <unicode hex="0237"/>
  <anchor x="120" y="-400" name="bottom"/>
  <anchor x="425" y="920" name="top"/>
  <outline>
    <contour>
      <point x="-109" y="-520" type="curve" smooth="yes"/>
      <point x="151" y="-520"/>
      <point x="246.505" y="-275.29"/>
      <point x="296" y="-23" type="curve" smooth="yes"/>
      <point x="481" y="920" type="line"/>
      <point x="112" y="920" type="line"/>
      <point x="112" y="916" type="line"/>
      <point x="305" y="916" type="line"/>
      <point x="137" y="40" type="line" smooth="yes"/>
      <point x="93.732" y="-205.65"/>
      <point x="71" y="-516"/>
      <point x="-109" y="-516" type="curve" smooth="yes"/>
      <point x="-268" y="-516"/>
      <point x="-331" y="-414"/>
      <point x="-331" y="-312" type="curve"/>
      <point x="-333" y="-312" type="line"/>
      <point x="-333" y="-372"/>
      <point x="-275" y="-395"/>
      <point x="-217" y="-395" type="curve" smooth="yes"/>
      <point x="-150" y="-395"/>
      <point x="-110" y="-337"/>
      <point x="-110" y="-286" type="curve" smooth="yes"/>
      <point x="-110" y="-206"/>
      <point x="-171" y="-178"/>
      <point x="-221" y="-178" type="curve" smooth="yes"/>
      <point x="-282" y="-178"/>
      <point x="-335" y="-230"/>
      <point x="-335" y="-312" type="curve" smooth="yes"/>
      <point x="-335" y="-415"/>
      <point x="-271" y="-520"/>
    </contour>
  </outline>
</glyph>
<glyph name="acutecomb" format="2">
  <unicode hex="0301"/>
  <anchor x="723" y="1500" name="_top"/>
  <outline>
    <contour>
      <point x="653" y="1692" type="line"/>
      <point x="925" y="1817" type="line" smooth="yes"/>
      <point x="957" y="1836"/>
      <point x="971" y="1882"/>
      <point x="952" y="1915" type="curve" smooth="yes"/>
      <point x="933" y="1948"/>
      <point x="882" y="1967"/>
      <point x="840" y="1926" type="curve" smooth="yes"/>
      <point x="651" y="1694" type="line"/>
    </contour>
  </outline>
</glyph>
<glyph name="brevecomb" format="2">
  <unicode hex="0306"/>
  <anchor x="739" y="1500" name="_top"/>
  <outline>
    <contour>
      <point x="782" y="1682" type="curve" smooth="yes"/>
      <point x="962" y="1682"/>
      <point x="1042" y="1818"/>
      <point x="1062" y="1940" type="curve"/>
      <point x="1058" y="1940" type="line"/>
      <point x="1038" y="1842"/>
      <point x="896" y="1792"/>
      <point x="802" y="1792" type="curve" smooth="yes"/>
      <point x="708" y="1792"/>
      <point x="611" y="1842"/>
      <point x="626" y="1940" type="curve"/>
      <point x="622" y="1940" type="line"/>
      <point x="602" y="1818"/>
      <point x="622" y="1682"/>
    </contour>
  </outline>
</glyph>
<glyph name="dotaccentcomb" format="2">
  <unicode hex="0307"/>
  <anchor x="606" y="920" name="_top"/>
  <outline>
    <contour>
      <point x="716" y="1270" type="curve" smooth="yes"/>
      <point x="782" y="1270"/>
      <point x="837" y="1325"/>
      <point x="837" y="1391" type="curve" smooth="yes"/>
      <point x="837" y="1457"/>
      <point x="782" y="1511"/>
      <point x="716" y="1511" type="curve" smooth="yes"/>
      <point x="650" y="1511"/>
      <point x="597" y="1457"/>
      <point x="597" y="1391" type="curve" smooth="yes"/>
      <point x="597" y="1325"/>
      <point x="649" y="1270"/>
    </contour>
  </outline>
</glyph>
<glyph name="hungarumlautcomb" format="2">
  <unicode hex="030B"/>
  <anchor x="718" y="1500" name="_top"/>
  <outline>
    <contour>
      <point x="858" y="1692" type="line"/>
      <point x="1130" y="1817" type="line" smooth="yes"/>
      <point x="1162" y="1836"/>
      <point x="1176" y="1882"/>
      <point x="1157" y="1915" type="curve" smooth="yes"/>
      <point x="1138" y="1948"/>
      <point x="1087" y="1967"/>
      <point x="1045" y="1926" type="curve" smooth="yes"/>
      <point x="856" y="1694" type="line"/>
    </contour>
    <contour>
      <point x="448" y="1692" type="line"/>
      <point x="720" y="1817" type="line" smooth="yes"/>
      <point x="752" y="1836"/>
      <point x="766" y="1882"/>
      <point x="747" y="1915" type="curve" smooth="yes"/>
      <point x="728" y="1948"/>
      <point x="677" y="1967"/>
      <point x="635" y="1926" type="curve" smooth="yes"/>
      <point x="446" y="1694" type="line"/>
    </contour>
  </outline>
</glyph>
<glyph name="pi" format="2">
  <advance width="1161"/>
  <unicode hex="03C0"/>
  <outline>
    <contour>
      <point x="136" y="590" type="line"/>
      <point x="140" y="590" type="line"/>
      <point x="176" y="740" type="line"/>
      <point x="1132" y="740" type="line"/>
      <point x="1192" y="920" type="line"/>
      <point x="214" y="920" type="line"/>
    </contour>
    <contour>
      <point x="148" y="-20" type="curve" smooth="yes"/>
      <point x="284" y="-20"/>
      <point x="378" y="190"/>
      <point x="456" y="486" type="curve" smooth="yes"/>
      <point x="566" y="900" type="line"/>
      <point x="454" y="900" type="line"/>
      <point x="360" y="558" type="line" smooth="yes"/>
      <point x="260" y="192"/>
      <point x="30" y="212"/>
      <point x="30" y="76" type="curve" smooth="yes"/>
      <point x="30" y="26"/>
      <point x="66" y="-20"/>
    </contour>
    <contour>
      <point x="796" y="-20" type="curve" smooth="yes"/>
      <point x="922" y="-20"/>
      <point x="1006" y="66"/>
      <point x="1052" y="206" type="curve"/>
      <point x="1050" y="208" type="line"/>
      <point x="1012" y="140"/>
      <point x="974" y="90"/>
      <point x="898" y="90" type="curve" smooth="yes"/>
      <point x="850" y="90"/>
      <point x="818" y="108"/>
      <point x="838" y="182" type="curve" smooth="yes"/>
      <point x="1012" y="840" type="line"/>
      <point x="832" y="840" type="line"/>
      <point x="662" y="166" type="line" smooth="yes"/>
      <point x="630" y="36"/>
      <point x="722" y="-20"/>
    </contour>
  </outline>
</glyph>
<glyph name="quotedblleft" format="2">
  <advance width="819"/>
  <unicode hex="201C"/>
  <outline>
    <contour>
      <point x="794" y="1032" type="curve" smooth="yes"/>
      <point x="870" y="1032"/>
      <point x="928" y="1090"/>
      <point x="928" y="1156" type="curve" smooth="yes"/>
      <point x="928" y="1217"/>
      <point x="889" y="1268"/>
      <point x="803" y="1268" type="curve" smooth="yes"/>
      <point x="725" y="1268"/>
      <point x="666" y="1214"/>
      <point x="666" y="1141" type="curve"/>
      <point x="668" y="1141" type="line"/>
      <point x="634" y="1342"/>
      <point x="840" y="1556"/>
      <point x="1022" y="1556" type="curve"/>
      <point x="1022" y="1560" type="line"/>
      <point x="842" y="1560"/>
      <point x="660" y="1366"/>
      <point x="660" y="1186" type="curve" smooth="yes"/>
      <point x="660" y="1081"/>
      <point x="716" y="1032"/>
    </contour>
    <contour>
      <point x="405" y="1032" type="curve" smooth="yes"/>
      <point x="481" y="1032"/>
      <point x="539" y="1090"/>
      <point x="539" y="1156" type="curve" smooth="yes"/>
      <point x="539" y="1217"/>
      <point x="500" y="1268"/>
      <point x="414" y="1268" type="curve" smooth="yes"/>
      <point x="336" y="1268"/>
      <point x="277" y="1214"/>
      <point x="277" y="1141" type="curve"/>
      <point x="279" y="1141" type="line"/>
      <point x="245" y="1342"/>
      <point x="451" y="1556"/>
      <point x="633" y="1556" type="curve"/>
      <point x="633" y="1560" type="line"/>
      <point x="453" y="1560"/>
      <point x="271" y="1366"/>
      <point x="271" y="1186" type="curve" smooth="yes"/>
      <point x="271" y="1081"/>
      <point x="327" y="1032"/>
    </contour>
  </outline>
</glyph>
<glyph name="foursuperior" format="2">
  <advance width="761"/>
  <unicode hex="2074"/>
  <outline>
    <contour>
      <point x="586.4" y="919" type="line"/>
      <point x="700.4" y="919" type="line"/>
      <point x="892.4" y="1819" type="line"/>
      <point x="784.4" y="1819" type="line"/>
      <point x="232.4" y="1175.8" type="line"/>
      <point x="892.4" y="1175.8" type="line"/>
      <point x="892.4" y="1178.2" type="line"/>
      <point x="237.2" y="1178.2" type="line"/>
      <point x="772.4" y="1802.2" type="line"/>
    </contour>
    <contour>
      <point x="484.4" y="919" type="line"/>
      <point x="802.4" y="919" type="line"/>
      <point x="802.4" y="921.4" type="line"/>
      <point x="484.4" y="921.4" type="line"/>
    </contour>
  </outline>
</glyph>
<glyph name="partialdiff" format="2">
  <advance width="1119"/>
  <unicode hex="2202"/>
  <outline>
    <contour>
      <point x="316" y="-20" type="curve" smooth="yes"/>
      <point x="618" y="-20"/>
      <point x="885" y="330"/>
      <point x="982" y="750" type="curve" smooth="yes"/>
      <point x="1094" y="1236"/>
      <point x="995" y="1520"/>
      <point x="710" y="1520" type="curve"/>
      <point x="710" y="1516" type="line"/>
      <point x="968" y="1516"/>
      <point x="848" y="1084"/>
      <point x="806" y="900" type="curve"/>
      <point x="748" y="601" type="line"/>
      <point x="686" y="333"/>
      <point x="534" y="-16"/>
      <point x="316" y="-16" type="curve" smooth="yes"/>
      <point x="98" y="-16"/>
      <point x="112.021" y="270.995"/>
      <point x="165" y="500" type="curve" smooth="yes"/>
      <point x="227" y="768"/>
      <point x="365" y="976"/>
      <point x="543" y="976" type="curve" smooth="yes"/>
      <point x="709" y="976"/>
      <point x="799" y="822"/>
      <point x="748" y="601" type="curve"/>
      <point x="752" y="601" type="line"/>
      <point x="806" y="835"/>
      <point x="704" y="980"/>
      <point x="543" y="980" type="curve" smooth="yes"/>
      <point x="341" y="980"/>
      <point x="41" y="840"/>
      <point x="-37" y="500" type="curve" smooth="yes"/>
      <point x="-106" y="200"/>
      <point x="14" y="-20"/>
    </contour>
    <contour>
      <point x="430" y="1206" type="curve" smooth="yes"/>
      <point x="485" y="1206"/>
      <point x="553" y="1240"/>
      <point x="571" y="1320" type="curve" smooth="yes"/>
      <point x="587" y="1388"/>
      <point x="538" y="1426"/>
      <point x="481" y="1426" type="curve" smooth="yes"/>
      <point x="428" y="1426"/>
      <point x="365" y="1384"/>
      <point x="349" y="1316" type="curve"/>
      <point x="351" y="1316" type="line"/>
      <point x="387" y="1444"/>
      <point x="561" y="1516"/>
      <point x="710" y="1516" type="curve"/>
      <point x="710" y="1520" type="line"/>
      <point x="557" y="1521"/>
      <point x="376" y="1440"/>
      <point x="347" y="1316" type="curve" smooth="yes"/>
      <point x="330" y="1244"/>
      <point x="369" y="1206"/>
    </contour>
  </outline>
</glyph>
<glyph name="uniF8E9" format="2">
  <advance width="1159"/>
  <unicode hex="F8E9"/>
  <anchor x="685.36" y="860" name="_top"/>
  <anchor x="685.36" y="860" name="ogonek"/>
  <anchor x="804.16" y="1400" name="top"/>
  <outline>
    <contour>
      <point x="682" y="668" type="curve" smooth="yes"/>
      <point x="961.6" y="668"/>
      <point x="1228" y="934.4"/>
      <point x="1228" y="1214" type="curve" smooth="yes"/>
      <point x="1228" y="1445.6"/>
      <point x="1057.6" y="1592"/>
      <point x="826" y="1592" type="curve" smooth="yes"/>
      <point x="546.4" y="1592"/>
      <point x="280" y="1325.6"/>
      <point x="280" y="1046" type="curve" smooth="yes"/>
      <point x="280" y="814.4"/>
      <point x="450.4" y="668"/>
    </contour>
    <contour>
      <point x="854.8" y="860" type="line"/>
      <point x="856" y="860" type="line"/>
      <point x="895.6" y="1007.6" type="line"/>
      <point x="894.4" y="1007.6" type="line"/>
      <point x="886" y="985.4" type="line"/>
      <point x="867.4" y="945.8"/>
      <point x="849.4" y="929"/>
      <point x="830.8" y="910.4" type="curve"/>
    </contour>
    <contour>
      <point x="679.6" y="852.8" type="curve" smooth="yes"/>
      <point x="782.8" y="852.8"/>
      <point x="866.8" y="918.8"/>
      <point x="895.6" y="1007.6" type="curve"/>
      <point x="894.4" y="1007.6" type="line"/>
      <point x="865.6" y="921.8"/>
      <point x="783.4" y="855.8"/>
      <point x="686.8" y="855.8" type="curve" smooth="yes"/>
      <point x="611.8" y="855.8"/>
      <point x="575.2" y="927.2"/>
      <point x="575.2" y="1000.4" type="curve" smooth="yes"/>
      <point x="575.2" y="1167.2"/>
      <point x="662.2" y="1404.2"/>
      <point x="816.4" y="1404.2" type="curve" smooth="yes"/>
      <point x="896.8" y="1404.2"/>
      <point x="957.4" y="1350.8"/>
      <point x="944.8" y="1252.4" type="curve"/>
      <point x="946" y="1252.4" type="line"/>
      <point x="959.2" y="1355.6"/>
      <point x="894.4" y="1407.2"/>
      <point x="809.2" y="1407.2" type="curve" smooth="yes"/>
      <point x="641.2" y="1407.2"/>
      <point x="496" y="1240.4"/>
      <point x="496" y="1043.6" type="curve" smooth="yes"/>
      <point x="496" y="926"/>
      <point x="569.2" y="852.8"/>
    </contour>
    <contour>
      <point x="682" y="670.4" type="curve" smooth="yes"/>
      <point x="451.6" y="670.4"/>
      <point x="282.4" y="815.6"/>
      <point x="282.4" y="1046" type="curve" smooth="yes"/>
      <point x="282.4" y="1324.4"/>
      <point x="548.8" y="1589.6"/>
      <point x="826" y="1589.6" type="curve" smooth="yes"/>
      <point x="1056.4" y="1589.6"/>
      <point x="1225.6" y="1444.4"/>
      <point x="1225.6" y="1214" type="curve" smooth="yes"/>
      <point x="1225.6" y="935.6"/>
      <point x="959.2" y="670.4"/>
    </contour>
    <contour>
      <point x="944.8" y="1252.4" type="line"/>
      <point x="946" y="1252.4" type="line"/>
      <point x="980.8" y="1400" type="line"/>
      <point x="979" y="1400" type="line"/>
      <point x="928" y="1349.6" type="line"/>
      <point x="943" y="1328"/>
      <point x="948.4" y="1299.8"/>
      <point x="946.6" y="1266.8" type="curve"/>
    </contour>
  </outline>
</glyph>
<glyph name="fl" format="2">
  <advance width="1195"/>
  <unicode hex="FB02"/>
  <outline>
    <contour>
      <point x="-174" y="-520" type="curve" smooth="yes"/>
      <point x="46" y="-520"/>
      <point x="198.802" y="-268.01"/>
      <point x="257" y="-23" type="curve" smooth="yes"/>
      <point x="519" y="1080" type="line" smooth="yes"/>
      <point x="575.795" y="1319.1"/>
      <point x="644" y="1516"/>
      <point x="815" y="1516" type="curve" smooth="yes"/>
      <point x="990" y="1516"/>
      <point x="1078" y="1404"/>
      <point x="1078" y="1322" type="curve"/>
      <point x="1080" y="1322" type="line"/>
      <point x="1080" y="1392"/>
      <point x="1017" y="1418"/>
      <point x="970" y="1418" type="curve" smooth="yes"/>
      <point x="911" y="1418"/>
      <point x="854" y="1377"/>
      <point x="854" y="1307" type="curve" smooth="yes"/>
      <point x="854" y="1227"/>
      <point x="919" y="1198"/>
      <point x="969" y="1198" type="curve" smooth="yes"/>
      <point x="1030" y="1198"/>
      <point x="1082" y="1240"/>
      <point x="1082" y="1322" type="curve" smooth="yes"/>
      <point x="1082" y="1406"/>
      <point x="991" y="1520"/>
      <point x="815" y="1520" type="curve" smooth="yes"/>
      <point x="525" y="1520"/>
      <point x="396.484" y="1270.23"/>
      <point x="340" y="1023" type="curve" smooth="yes"/>
      <point x="88" y="-80" type="line" smooth="yes"/>
      <point x="33.361" y="-319.156"/>
      <point x="-33" y="-516"/>
      <point x="-174" y="-516" type="curve" smooth="yes"/>
      <point x="-295" y="-516"/>
      <point x="-366" y="-454"/>
      <point x="-366" y="-372" type="curve"/>
      <point x="-368" y="-372" type="line"/>
      <point x="-368" y="-442"/>
      <point x="-316" y="-468"/>
      <point x="-272" y="-468" type="curve" smooth="yes"/>
      <point x="-213" y="-468"/>
      <point x="-162" y="-427"/>
      <point x="-162" y="-357" type="curve" smooth="yes"/>
      <point x="-162" y="-297"/>
      <point x="-216" y="-268"/>
      <point x="-266" y="-268" type="curve" smooth="yes"/>
      <point x="-327" y="-268"/>
      <point x="-370" y="-310"/>
      <point x="-370" y="-372" type="curve" smooth="yes"/>
      <point x="-370" y="-456"/>
      <point x="-296" y="-520"/>
    </contour>
    <contour>
      <point x="133" y="916" type="line"/>
      <point x="753" y="916" type="line"/>
      <point x="753" y="920" type="line"/>
      <point x="133" y="920" type="line"/>
    </contour>
    <contour>
      <point x="807" y="-20" type="curve" smooth="yes"/>
      <point x="955" y="-20"/>
      <point x="1032" y="76"/>
      <point x="1118" y="306" type="curve"/>
      <point x="1115" y="307" type="line"/>
      <point x="1030" y="79"/>
      <point x="952" y="-9"/>
      <point x="834" y="-9" type="curve" smooth="yes"/>
      <point x="810" y="-9"/>
      <point x="795" y="8"/>
      <point x="795" y="29" type="curve" smooth="yes"/>
      <point x="795" y="39"/>
      <point x="796.813" y="53.05"/>
      <point x="800" y="65" type="curve" smooth="yes"/>
      <point x="1197" y="1540" type="line"/>
      <point x="1014" y="1450" type="line"/>
      <point x="669" y="170" type="line" smooth="yes"/>
      <point x="664.02" y="151.524"/>
      <point x="660" y="126"/>
      <point x="660" y="106" type="curve" smooth="yes"/>
      <point x="660" y="29"/>
      <point x="703" y="-20"/>
    </contour>
  </outline>
</glyph>
<glyph name="caroncomb.alt" format="2">
  <anchor x="444" y="920" name="_topright"/>
  <outline>
    <contour>
      <point x="482" y="992" type="line"/>
      <point x="662" y="992"/>
      <point x="844" y="1186"/>
      <point x="844" y="1366" type="curve" smooth="yes"/>
      <point x="844" y="1471"/>
      <point x="788" y="1520"/>
      <point x="710" y="1520" type="curve" smooth="yes"/>
      <point x="634" y="1520"/>
      <point x="576" y="1462"/>
      <point x="576" y="1396" type="curve" smooth="yes"/>
      <point x="576" y="1335"/>
      <point x="615" y="1284"/>
      <point x="701" y="1284" type="curve" smooth="yes"/>
      <point x="779" y="1284"/>
      <point x="838" y="1338"/>
      <point x="838" y="1411" type="curve"/>
      <point x="836" y="1411" type="line"/>
      <point x="870" y="1210"/>
      <point x="664" y="996"/>
      <point x="482" y="996" type="curve"/>
    </contour>
  </outline>
</glyph>
<glyph name="dcroat.sc" format="2">
  <advance width="1235"/>
  <anchor x="312" y="0" name="bottom"/>
  <anchor x="312" y="0" name="cedilla"/>
  <anchor x="588" y="1020" name="top"/>
  <outline>
    <contour>
      <point x="26" y="548" type="line"/>
      <point x="543" y="548" type="line"/>
      <point x="543" y="552" type="line"/>
      <point x="26" y="552" type="line"/>
    </contour>
    <component base="d.sc"/>
  </outline>
</glyph>
<glyph name="eth.sc" format="2">
  <advance width="1235"/>
  <outline>
    <contour>
      <point x="25.948" y="548" type="line"/>
      <point x="543.389" y="548" type="line"/>
      <point x="543.389" y="552" type="line"/>
      <point x="25.948" y="552" type="line"/>
    </contour>
    <component base="d.sc"/>
  </outline>
</glyph>
<glyph name="f_f_l" format="2">
  <advance width="1765"/>
  <outline>
    <contour>
      <point x="381" y="-420" type="curve" smooth="yes"/>
      <point x="621" y="-420"/>
      <point x="768.11" y="-169.187"/>
      <point x="828" y="77" type="curve" smooth="yes"/>
      <point x="1072" y="1080" type="line" smooth="yes"/>
      <point x="1129.94" y="1318.15"/>
      <point x="1212" y="1516"/>
      <point x="1373" y="1516" type="curve" smooth="yes"/>
      <point x="1554" y="1516"/>
      <point x="1640" y="1414"/>
      <point x="1640" y="1332" type="curve"/>
      <point x="1642" y="1332" type="line"/>
      <point x="1642" y="1402"/>
      <point x="1570" y="1428"/>
      <point x="1526" y="1428" type="curve" smooth="yes"/>
      <point x="1477" y="1428"/>
      <point x="1418" y="1387"/>
      <point x="1418" y="1317" type="curve" smooth="yes"/>
      <point x="1418" y="1237"/>
      <point x="1480" y="1208"/>
      <point x="1530" y="1208" type="curve" smooth="yes"/>
      <point x="1591" y="1208"/>
      <point x="1644" y="1250"/>
      <point x="1644" y="1332" type="curve" smooth="yes"/>
      <point x="1644" y="1416"/>
      <point x="1555" y="1520"/>
      <point x="1373" y="1520" type="curve" smooth="yes"/>
      <point x="1093" y="1520"/>
      <point x="937.417" y="1269.68"/>
      <point x="887" y="1023" type="curve" smooth="yes"/>
      <point x="662" y="20" type="line" smooth="yes"/>
      <point x="608.15" y="-220.05"/>
      <point x="522" y="-416"/>
      <point x="381" y="-416" type="curve" smooth="yes"/>
      <point x="211" y="-416"/>
      <point x="138" y="-304"/>
      <point x="138" y="-222" type="curve"/>
      <point x="136" y="-222" type="line"/>
      <point x="136" y="-292"/>
      <point x="209" y="-318"/>
      <point x="246" y="-318" type="curve" smooth="yes"/>
      <point x="305" y="-318"/>
      <point x="362" y="-277"/>
      <point x="362" y="-207" type="curve" smooth="yes"/>
      <point x="362" y="-127"/>
      <point x="297" y="-98"/>
      <point x="247" y="-98" type="curve" smooth="yes"/>
      <point x="186" y="-98"/>
      <point x="134" y="-140"/>
      <point x="134" y="-222" type="curve" smooth="yes"/>
      <point x="134" y="-306"/>
      <point x="209" y="-420"/>
    </contour>
    <contour>
      <point x="-174" y="-520" type="curve" smooth="yes"/>
      <point x="46" y="-520"/>
      <point x="199.498" y="-268.425"/>
      <point x="257" y="-23" type="curve" smooth="yes"/>
      <point x="492" y="980" type="line" smooth="yes"/>
      <point x="548.043" y="1219.2"/>
      <point x="622" y="1416"/>
      <point x="773" y="1416" type="curve" smooth="yes"/>
      <point x="939" y="1416"/>
      <point x="1016" y="1306"/>
      <point x="1016" y="1222" type="curve"/>
      <point x="1018" y="1222" type="line"/>
      <point x="1018" y="1292"/>
      <point x="965" y="1318"/>
      <point x="908" y="1318" type="curve" smooth="yes"/>
      <point x="849" y="1318"/>
      <point x="792" y="1277"/>
      <point x="792" y="1207" type="curve" smooth="yes"/>
      <point x="792" y="1127"/>
      <point x="857" y="1098"/>
      <point x="907" y="1098" type="curve" smooth="yes"/>
      <point x="968" y="1098"/>
      <point x="1020" y="1140"/>
      <point x="1020" y="1222" type="curve" smooth="yes"/>
      <point x="1020" y="1306"/>
      <point x="945" y="1420"/>
      <point x="773" y="1420" type="curve" smooth="yes"/>
      <point x="503" y="1420"/>
      <point x="374.166" y="1170.08"/>
      <point x="318" y="923" type="curve" smooth="yes"/>
      <point x="90" y="-80" type="line" smooth="yes"/>
      <point x="35.562" y="-319.479"/>
      <point x="-36" y="-516"/>
      <point x="-174" y="-516" type="curve" smooth="yes"/>
      <point x="-295" y="-516"/>
      <point x="-366" y="-455"/>
      <point x="-366" y="-372" type="curve"/>
      <point x="-368" y="-372" type="line"/>
      <point x="-368" y="-442"/>
      <point x="-306" y="-468"/>
      <point x="-262" y="-468" type="curve" smooth="yes"/>
      <point x="-213" y="-468"/>
      <point x="-160" y="-427"/>
      <point x="-160" y="-367" type="curve" smooth="yes"/>
      <point x="-160" y="-301"/>
      <point x="-216" y="-268"/>
      <point x="-266" y="-268" type="curve" smooth="yes"/>
      <point x="-327" y="-268"/>
      <point x="-370" y="-310"/>
      <point x="-370" y="-372" type="curve" smooth="yes"/>
      <point x="-370" y="-456"/>
      <point x="-296" y="-520"/>
    </contour>
    <contour>
      <point x="133" y="916" type="line"/>
      <point x="1312" y="916" type="line"/>
      <point x="1312" y="920" type="line"/>
      <point x="133" y="920" type="line"/>
    </contour>
    <contour>
      <point x="1391" y="-20" type="curve" smooth="yes"/>
      <point x="1519" y="-20"/>
      <point x="1602" y="76"/>
      <point x="1688" y="306" type="curve"/>
      <point x="1685" y="307" type="line"/>
      <point x="1598" y="78"/>
      <point x="1521" y="-10"/>
      <point x="1403" y="-10" type="curve" smooth="yes"/>
      <point x="1378" y="-10"/>
      <point x="1366" y="8"/>
      <point x="1366" y="29" type="curve" smooth="yes"/>
      <point x="1366" y="39"/>
      <point x="1367" y="53"/>
      <point x="1370" y="65" type="curve" smooth="yes"/>
      <point x="1767" y="1540" type="line"/>
      <point x="1584" y="1450" type="line"/>
      <point x="1239" y="170" type="line" smooth="yes"/>
      <point x="1235.78" y="158.059"/>
      <point x="1230" y="126"/>
      <point x="1230" y="106" type="curve" smooth="yes"/>
      <point x="1230" y="16"/>
      <point x="1287" y="-20"/>
    </contour>
  </outline>
</glyph>
<glyph name="h.sc" format="2">
  <advance width="1330"/>
  <anchor x="455" y="0" name="bottom"/>
  <anchor x="97" y="0" name="cedilla"/>
  <anchor x="690" y="1020" name="top"/>
  <outline>
    <contour>
      <point x="715" y="0" type="line"/>
      <point x="906" y="0" type="line"/>
      <point x="1141" y="1020" type="line"/>
      <point x="950" y="1020" type="line"/>
    </contour>
    <contour>
      <point x="-125" y="0" type="line"/>
      <point x="345" y="0" type="line"/>
      <point x="346" y="4" type="line"/>
      <point x="-124" y="4" type="line"/>
    </contour>
    <contour>
      <point x="6" y="0" type="line"/>
      <point x="196" y="0" type="line"/>
      <point x="431" y="1020" type="line"/>
      <point x="241" y="1020" type="line"/>
    </contour>
    <contour>
      <point x="565" y="0" type="line"/>
      <point x="1035" y="0" type="line"/>
      <point x="1036" y="4" type="line"/>
      <point x="566" y="4" type="line"/>
    </contour>
    <contour>
      <point x="277" y="528" type="line"/>
      <point x="877" y="528" type="line"/>
      <point x="878" y="532" type="line"/>
      <point x="278" y="532" type="line"/>
    </contour>
    <contour>
      <point x="110" y="1016" type="line"/>
      <point x="580" y="1016" type="line"/>
      <point x="580" y="1020" type="line"/>
      <point x="110" y="1020" type="line"/>
    </contour>
    <contour>
      <point x="800" y="1016" type="line"/>
      <point x="1270" y="1016" type="line"/>
      <point x="1270" y="1020" type="line"/>
      <point x="800" y="1020" type="line"/>
    </contour>
  </outline>
</glyph>
<glyph name="i.sc" format="2">
  <advance width="720"/>
  <anchor x="141" y="0" name="bottom"/>
  <anchor x="141" y="0" name="cedilla"/>
  <anchor x="380" y="1020" name="top"/>
  <outline>
    <contour>
      <point x="46" y="0" type="line"/>
      <point x="235" y="0" type="line"/>
      <point x="470" y="1020" type="line"/>
      <point x="281" y="1020" type="line"/>
    </contour>
    <contour>
      <point x="-125" y="0" type="line"/>
      <point x="425" y="0" type="line"/>
      <point x="426" y="4" type="line"/>
      <point x="-124" y="4" type="line"/>
    </contour>
    <contour>
      <point x="110" y="1016" type="line"/>
      <point x="660" y="1016" type="line"/>
      <point x="660" y="1020" type="line"/>
      <point x="110" y="1020" type="line"/>
    </contour>
  </outline>
</glyph>
<glyph name="j.sc" format="2">
  <advance width="857"/>
  <outline>
    <contour>
      <point x="57" y="-20" type="curve" smooth="yes"/>
      <point x="279" y="-20"/>
      <point x="424" y="180"/>
      <point x="504" y="311" type="curve"/>
      <point x="667" y="1020" type="line"/>
      <point x="477" y="1020" type="line"/>
      <point x="357" y="500" type="line" smooth="yes"/>
      <point x="293" y="221"/>
      <point x="220" y="-16"/>
      <point x="58" y="-16" type="curve" smooth="yes"/>
      <point x="-102" y="-16"/>
      <point x="-187" y="80"/>
      <point x="-155" y="220" type="curve"/>
      <point x="-157" y="220" type="line"/>
      <point x="-166" y="180"/>
      <point x="-110" y="127"/>
      <point x="-35" y="127" type="curve" smooth="yes"/>
      <point x="33" y="127"/>
      <point x="118" y="182"/>
      <point x="134" y="252" type="curve" smooth="yes"/>
      <point x="155" y="344"/>
      <point x="96" y="380"/>
      <point x="26" y="380" type="curve" smooth="yes"/>
      <point x="-54" y="380"/>
      <point x="-137" y="314"/>
      <point x="-159" y="220" type="curve" smooth="yes"/>
      <point x="-192" y="79"/>
      <point x="-107" y="-20"/>
    </contour>
    <contour>
      <point x="237" y="1016" type="line"/>
      <point x="817" y="1016" type="line"/>
      <point x="817" y="1020" type="line"/>
      <point x="237" y="1020" type="line"/>
    </contour>
  </outline>
</glyph>
<glyph name="l.sc" format="2">
  <advance width="989"/>
  <anchor x="355" y="0" name="bottom"/>
  <anchor x="355" y="0" name="cedilla"/>
  <anchor x="338" y="1020" name="top"/>
  <anchor x="527" y="443" name="topright"/>
  <outline>
    <contour>
      <point x="6" y="0" type="line"/>
      <point x="196" y="0" type="line"/>
      <point x="431" y="1020" type="line"/>
      <point x="241" y="1020" type="line"/>
    </contour>
    <contour>
      <point x="-125" y="0" type="line"/>
      <point x="759" y="0" type="line"/>
      <point x="840" y="350" type="line"/>
      <point x="836" y="350" type="line"/>
      <point x="791" y="156"/>
      <point x="671" y="4"/>
      <point x="357" y="4" type="curve" smooth="yes"/>
      <point x="-124" y="4" type="line"/>
    </contour>
    <contour>
      <point x="110" y="1016" type="line"/>
      <point x="561" y="1016" type="line"/>
      <point x="561" y="1020" type="line"/>
      <point x="110" y="1020" type="line"/>
    </contour>
  </outline>
</glyph>
<glyph name="nine.tosf" format="2">
  <advance width="1160"/>
  <outline>
    <contour>
      <point x="-120" y="-519.961" type="line"/>
      <point x="446" y="-519.961"/>
      <point x="910" y="100.064"/>
      <point x="910" y="503.933" type="curve" smooth="yes"/>
      <point x="910" y="807.309"/>
      <point x="744" y="940.036"/>
      <point x="522" y="940.036" type="curve" smooth="yes"/>
      <point x="220" y="940.036"/>
      <point x="-70" y="636.66"/>
      <point x="-70" y="352.245" type="curve" smooth="yes"/>
      <point x="-70" y="86.791"/>
      <point x="86" y="-8.014"/>
      <point x="248" y="-8.014" type="curve" smooth="yes"/>
      <point x="570" y="-8.014"/>
      <point x="714" y="376.894"/>
      <point x="714" y="598.738" type="curve"/>
      <point x="710" y="598.738" type="line"/>
      <point x="710" y="390.167"/>
      <point x="572" y="12.843"/>
      <point x="292" y="12.843" type="curve" smooth="yes"/>
      <point x="174" y="12.843"/>
      <point x="130" y="155.051"/>
      <point x="130" y="352.245" type="curve" smooth="yes"/>
      <point x="130" y="587.361"/>
      <point x="298" y="936.244"/>
      <point x="516" y="936.244" type="curve" smooth="yes"/>
      <point x="654" y="936.244"/>
      <point x="710" y="776.971"/>
      <point x="710" y="598.738" type="curve"/>
      <point x="708" y="522.894" type="line"/>
      <point x="708" y="82.999"/>
      <point x="308" y="-516.169"/>
      <point x="-120" y="-516.169" type="curve"/>
    </contour>
  </outline>
</glyph>
<glyph name="seven.osf" format="2">
  <advance width="1009"/>
  <outline>
    <contour>
      <point x="258" y="-519.947" type="curve" smooth="yes"/>
      <point x="346" y="-519.947"/>
      <point x="396" y="-461.21"/>
      <point x="396" y="-391.105" type="curve" smooth="yes"/>
      <point x="396" y="-252.789"/>
      <point x="250" y="-275.526"/>
      <point x="250" y="-175.105" type="curve" smooth="yes"/>
      <point x="250" y="-89.841"/>
      <point x="398" y="73.106"/>
      <point x="530" y="251.212" type="curve" smooth="yes"/>
      <point x="706" y="488.054"/>
      <point x="1050" y="920.055"/>
      <point x="1050" y="920.055" type="curve"/>
      <point x="140" y="920.055" type="line"/>
      <point x="68" y="597.949" type="line"/>
      <point x="72" y="597.949" type="line"/>
      <point x="106" y="740.055" type="line"/>
      <point x="902" y="740.055" type="line"/>
      <point x="780" y="588.476"/>
      <point x="620" y="376.265"/>
      <point x="526" y="253.107" type="curve" smooth="yes"/>
      <point x="366" y="42.79"/>
      <point x="136" y="-226.263"/>
      <point x="136" y="-375.947" type="curve" smooth="yes"/>
      <point x="136" y="-468.789"/>
      <point x="190" y="-519.947"/>
    </contour>
  </outline>
</glyph>
<glyph name="v.sc" format="2">
  <advance width="1198"/>
  <anchor x="354" y="0" name="bottom"/>
  <anchor x="612" y="0" name="cedilla"/>
  <anchor x="675" y="1020" name="top"/>
  <outline>
    <contour>
      <point x="342" y="-29" type="line"/>
      <point x="346" y="-29" type="line"/>
      <point x="1047" y="1020" type="line"/>
      <point x="1042" y="1020" type="line"/>
      <point x="501" y="210" type="line"/>
      <point x="336" y="1020" type="line"/>
      <point x="116" y="1020" type="line"/>
    </contour>
    <contour>
      <point x="25" y="1016" type="line"/>
      <point x="525" y="1016" type="line"/>
      <point x="525" y="1020" type="line"/>
      <point x="25" y="1020" type="line"/>
    </contour>
    <contour>
      <point x="866" y="1016" type="line"/>
      <point x="1223" y="1016" type="line"/>
      <point x="1223" y="1020" type="line"/>
      <point x="866" y="1020" type="line"/>
    </contour>
  </outline>
</glyph>
<glyph name="x.sc" format="2">
  <advance width="1244"/>
  <anchor x="362" y="0" name="bottom"/>
  <anchor x="687" y="1020" name="top"/>
  <outline>
    <contour>
      <point x="685" y="0" type="line"/>
      <point x="925" y="0" type="line"/>
      <point x="397" y="1020" type="line"/>
      <point x="165" y="1020" type="line"/>
    </contour>
    <contour>
      <point x="-180" y="0" type="line"/>
      <point x="155" y="0" type="line"/>
      <point x="156" y="4" type="line"/>
      <point x="-179" y="4" type="line"/>
    </contour>
    <contour>
      <point x="-43" y="0" type="line"/>
      <point x="-38" y="0" type="line"/>
      <point x="571" y="594" type="line"/>
      <point x="566" y="594" type="line"/>
    </contour>
    <contour>
      <point x="520" y="0" type="line"/>
      <point x="1004" y="0" type="line"/>
      <point x="1005" y="4" type="line"/>
      <point x="521" y="4" type="line"/>
    </contour>
    <contour>
      <point x="96" y="1016" type="line"/>
      <point x="555" y="1016" type="line"/>
      <point x="555" y="1020" type="line"/>
      <point x="96" y="1020" type="line"/>
    </contour>
    <contour>
      <point x="518" y="514" type="line"/>
      <point x="523" y="514" type="line"/>
      <point x="1026" y="1016" type="line"/>
      <point x="1021" y="1016" type="line"/>
    </contour>
    <contour>
      <point x="852" y="1016" type="line"/>
      <point x="1158" y="1016" type="line"/>
      <point x="1158" y="1020" type="line"/>
      <point x="852" y="1020" type="line"/>
    </contour>
  </outline>
</glyph>
<glyph name="z.sc" format="2">
  <advance width="1066"/>
  <anchor x="342" y="0" name="bottom"/>
  <anchor x="547" y="1020" name="top"/>
  <outline>
    <contour>
      <point x="-110" y="0" type="line"/>
      <point x="756" y="0" type="line"/>
      <point x="832" y="330" type="line"/>
      <point x="828" y="330" type="line"/>
      <point x="786" y="146"/>
      <point x="637" y="4"/>
      <point x="434" y="4" type="curve" smooth="yes"/>
      <point x="121" y="4" type="line"/>
      <point x="985" y="1016" type="line"/>
      <point x="985" y="1020" type="line"/>
      <point x="159" y="1020" type="line"/>
      <point x="93" y="730" type="line"/>
      <point x="97" y="730" type="line"/>
      <point x="130" y="874"/>
      <point x="280" y="1016"/>
      <point x="483" y="1016" type="curve" smooth="yes"/>
      <point x="755" y="1016" type="line"/>
      <point x="-109" y="4" type="line"/>
    </contour>
  </outline>
</glyph>
